<?xml version="1.0" encoding="UTF-8"?>
<svg id="Layer_1" data-name="Layer 1" xmlns="http://www.w3.org/2000/svg" viewBox="0 0 30 30">
  <defs>
    <style>
      .cls-1 {
        fill: #000;
        stroke-width: 0px;
      }
    </style>
  </defs>
  <path class="cls-1" d="M21.67.1h-13.35C3.79.1.1,3.79.1,8.33v13.35c0,4.53,3.69,8.22,8.22,8.22h13.35c4.53,0,8.22-3.69,8.22-8.22v-13.35c0-4.53-3.69-8.22-8.22-8.22ZM27.25,21.67c0,3.08-2.5,5.58-5.58,5.58h-13.35c-3.08,0-5.58-2.5-5.58-5.58v-13.35c0-3.08,2.5-5.58,5.58-5.58h13.35c3.08,0,5.58,2.5,5.58,5.58v13.35h0Z"/>
  <path class="cls-1" d="M15,7.32c-4.23,0-7.68,3.44-7.68,7.68s3.44,7.68,7.68,7.68,7.68-3.44,7.68-7.68-3.44-7.68-7.68-7.68ZM15,20.03c-2.78,0-5.03-2.26-5.03-5.03s2.26-5.03,5.03-5.03,5.03,2.26,5.03,5.03c0,2.78-2.26,5.03-5.03,5.03Z"/>
  <path class="cls-1" d="M23,5.08c-.51,0-1.01.21-1.37.57-.36.36-.57.86-.57,1.37s.21,1.01.57,1.37c.36.36.86.57,1.37.57s1.01-.21,1.37-.57c.36-.36.57-.86.57-1.37s-.21-1.01-.57-1.37c-.36-.36-.86-.57-1.37-.57Z"/>
</svg>