<?xml version="1.0" encoding="UTF-8"?>
<svg id="Layer_1" data-name="Layer 1" xmlns="http://www.w3.org/2000/svg" viewBox="0 0 30 30">
  <defs>
    <style>
      .cls-1 {
        fill: #000;
        stroke-width: 0px;
      }
    </style>
  </defs>
  <path class="cls-1" d="M29.4,23.48c-2.62-3.66-6.28-7.94-10.61-12.27S10.18,3.22,6.52.6c-1.19.71-2.32,1.56-3.34,2.58s-1.87,2.15-2.58,3.34c2.62,3.66,6.28,7.94,10.61,12.27s8.61,7.99,12.27,10.61c1.19-.71,2.32-1.56,3.34-2.58s1.87-2.15,2.58-3.34ZM11.39,13.19c-.89.89-2.36.89-3.25,0s-.89-2.36,0-3.25l1.8-1.8c.89-.89,2.36-.89,3.25,0s.89,2.36,0,3.25l-1.8,1.8ZM20.06,21.86c-.89.89-2.36.89-3.25,0s-.89-2.36,0-3.25l1.8-1.8c.89-.89,2.36-.89,3.25,0s.89,2.36,0,3.25l-1.8,1.8Z"/>
</svg>